<?xml version="1.0" encoding="UTF-8"?>
<svg version="1.1" xmlns="http://www.w3.org/2000/svg" width="40" height="40">
<path d="M0 0 C13.2 0 26.4 0 40 0 C40 13.2 40 26.4 40 40 C26.8 40 13.6 40 0 40 C0 26.8 0 13.6 0 0 Z " fill="#380101" transform="translate(0,0)"/>
<path d="M0 0 C2.8100346 1.79363911 4.50940468 3.01880935 6 6 C6.5811138 13.08958838 6.5811138 13.08958838 4.125 16.9375 C0.8698054 20.09695358 -1.42413238 20.33421243 -5.9609375 20.29296875 C-9.13134567 19.83745033 -10.8192402 18.24684343 -13 16 C-14.60086627 12.79826746 -14.49917089 9.47422941 -14 6 C-10.32759145 0.24655994 -6.71744997 -0.96515086 0 0 Z " fill="#67643A" transform="translate(24,10)"/>
<path d="M0 0 C-0.0928125 1.4540625 -0.0928125 1.4540625 -0.1875 2.9375 C-0.21224703 6.97951471 0.94625943 10.3230404 2.34375 14.08203125 C3 16 3 16 3 18 C3.99 18.33 4.98 18.66 6 19 C6 19.66 6 20.32 6 21 C4.02 21 2.04 21 0 21 C-0.268125 21.61875 -0.53625 22.2375 -0.8125 22.875 C-2 25 -2 25 -5 27 C-5.99 27 -6.98 27 -8 27 C-8.66 28.98 -9.32 30.96 -10 33 C-10.66 33 -11.32 33 -12 33 C-12.20625 32.236875 -12.4125 31.47375 -12.625 30.6875 C-14.43518421 27.14941268 -16.43872363 26.59894041 -20 25 C-20.515625 24.46375 -21.03125 23.9275 -21.5625 23.375 C-23.52944453 21.4935748 -25.35590317 21.35731038 -28 21 C-28 20.34 -28 19.68 -28 19 C-27.01 18.34 -26.02 17.68 -25 17 C-22.76604315 11.88855963 -21.55919523 6.58352713 -22 1 C-20.2984375 1.2475 -20.2984375 1.2475 -18.5625 1.5 C-11.50980522 2.36590025 -6.1216783 0 0 0 Z M-20 9 C-21.60086627 12.20173254 -21.49917089 15.52577059 -21 19 C-19.20636089 21.8100346 -17.98119065 23.50940468 -15 25 C-9.18654053 25.53365513 -9.18654053 25.53365513 -4.0625 23.125 C-0.90304642 19.8698054 -0.66578757 17.57586762 -0.70703125 13.0390625 C-1.16254967 9.86865433 -2.75315657 8.1807598 -5 6 C-10.71872108 3.14063946 -15.77770087 4.64975241 -20 9 Z " fill="#2C2B1C" transform="translate(31,5)"/>
<path d="M0 0 C2.375 1.625 2.375 1.625 4 4 C4.25 7.25 4.25 7.25 4 10 C3.34 10 2.68 10 2 10 C1.34 11.32 0.68 12.64 0 14 C-1.98 14 -3.96 14 -6 14 C-6 13.34 -6 12.68 -6 12 C-6.66 12 -7.32 12 -8 12 C-8 11.34 -8 10.68 -8 10 C-8.66 10 -9.32 10 -10 10 C-10.32152515 6.46322336 -10.4131192 4.6037896 -8.375 1.625 C-5.28813568 -0.48706506 -3.6717087 -0.61195145 0 0 Z " fill="#B9BC99" transform="translate(23,13)"/>
<path d="M0 0 C0.99 0.33 1.98 0.66 3 1 C3.17797969 4.91555309 3.27549064 7.72551348 1 11 C-1.1640625 11.609375 -1.1640625 11.609375 -3.625 11.75 C-4.44226563 11.80671875 -5.25953125 11.8634375 -6.1015625 11.921875 C-6.72804688 11.94765625 -7.35453125 11.9734375 -8 12 C-8 11.67 -8 11.34 -8 11 C-7.030625 10.71125 -6.06125 10.4225 -5.0625 10.125 C-1.89335797 9.35785318 -1.89335797 9.35785318 -1 7 C-0.34 7 0.32 7 1 7 C0.67 4.69 0.34 2.38 0 0 Z " fill="#706F55" transform="translate(26,16)"/>
<path d="M0 0 C0.99 0.99 1.98 1.98 3 3 C1.75 4.5 1.75 4.5 0 6 C-1.32 6 -2.64 6 -4 6 C-2.84826645 3.53199953 -1.95216435 1.95216435 0 0 Z " fill="#C6A14D" transform="translate(23,14)"/>
<path d="M0 0 C1.98 0 3.96 0 6 0 C5.1875 1.9375 5.1875 1.9375 4 4 C3.01 4.33 2.02 4.66 1 5 C0.67 3.35 0.34 1.7 0 0 Z " fill="#B8B187" transform="translate(17,13)"/>
<path d="M0 0 C-0.33 1.98 -0.66 3.96 -1 6 C-3.475 5.01 -3.475 5.01 -6 4 C-2.25 0 -2.25 0 0 0 Z " fill="#484518" transform="translate(31,5)"/>
<path d="M0 0 C2.475 0.99 2.475 0.99 5 2 C5 2.66 5 3.32 5 4 C3.02 4 1.04 4 -1 4 C-0.67 2.68 -0.34 1.36 0 0 Z " fill="#494618" transform="translate(32,22)"/>
</svg>
